<svg width="13" height="13" viewBox="0 0 13 13" fill="none" xmlns="http://www.w3.org/2000/svg">
<path fill-rule="evenodd" clip-rule="evenodd" d="M6.2312 12.1249C9.54491 12.1249 12.2312 9.43865 12.2312 6.12494C12.2312 2.81124 9.54491 0.124945 6.2312 0.124945C2.91749 0.124945 0.231201 2.81124 0.231201 6.12494C0.231201 9.43865 2.91749 12.1249 6.2312 12.1249ZM8.54535 4.58217C8.75836 4.36915 8.75836 4.02379 8.54535 3.81078C8.33233 3.59776 7.98697 3.59776 7.77396 3.81078L6.23118 5.35356L4.6884 3.81078C4.47539 3.59776 4.13002 3.59776 3.91701 3.81078C3.704 4.02379 3.704 4.36915 3.91701 4.58217L5.45979 6.12495L3.91701 7.66772C3.704 7.88074 3.704 8.2261 3.91701 8.43911C4.13002 8.65213 4.47539 8.65213 4.6884 8.43911L6.23118 6.89634L7.77396 8.43911C7.98697 8.65213 8.33233 8.65213 8.54535 8.43911C8.75836 8.2261 8.75836 7.88074 8.54535 7.66772L7.00257 6.12495L8.54535 4.58217Z" fill="currentColor" fill-opacity="0.75"/>
</svg>
