<svg width="13" height="12" viewBox="0 0 13 12" fill="none" xmlns="http://www.w3.org/2000/svg">
<path d="M3.40324 9.16247L3.48737 8.71378L3.03087 8.71379L2.16492 8.71379C1.17851 8.71379 0.378861 7.91415 0.378861 6.92774V2.16492C0.378861 1.17851 1.17851 0.378861 2.16492 0.378861H9.95862C10.945 0.378861 11.7447 1.17851 11.7447 2.16492V6.92774C11.7447 7.91415 10.945 8.71379 9.95862 8.71379H7.14421H7.02101L6.92137 8.78626L3.03955 11.6094C3.02506 11.6199 3.01562 11.6211 3.00969 11.6211C3.00152 11.6212 2.9903 11.6186 2.9788 11.6114C2.9673 11.6041 2.96019 11.5951 2.95674 11.5877C2.95423 11.5823 2.95122 11.5733 2.95452 11.5557L3.40324 9.16247Z" stroke="currentColor" stroke-width="0.757721"/>
</svg>
