<svg width="12" height="13" viewBox="0 0 12 13" fill="none" xmlns="http://www.w3.org/2000/svg">
<path fill-rule="evenodd" clip-rule="evenodd" d="M10.0353 1.17801C10.9608 2.88385 11.1362 4.54199 10.8409 6.72418C10.7973 7.04569 10.5192 7.28103 10.1947 7.28103L7.96198 7.28103C8.98144 8.87345 8.47023 11.347 8.47023 11.347C8.47023 12.1094 6.69135 12.1094 6.69135 11.347C6.69135 9.48604 6.26547 7.62505 4.04923 7.32346C3.68687 7.27415 3.38773 6.98457 3.38773 6.61887L3.38773 1.91256C3.38774 1.37753 3.80886 0.93729 4.34336 0.913547L9.15779 0.69968C9.51806 0.683676 9.86335 0.861035 10.0353 1.17801ZM0.33107 8.46308H1.44779C1.81349 8.46308 2.10994 8.16662 2.10994 7.80093V0.993238C2.10994 0.62754 1.81349 0.331082 1.44779 0.331082H0.331055L0.33107 8.46308Z" fill="currentColor"/>
<path d="M10.8409 6.72418L10.5931 6.69065L10.8409 6.72418ZM10.0353 1.17801L9.81558 1.29723L10.0353 1.17801ZM10.1947 7.28103V7.53103V7.28103ZM7.96198 7.28103L7.75143 7.41582L7.50508 7.03103L7.96198 7.03103L7.96198 7.28103ZM8.47023 11.347H8.22023V11.3215L8.2254 11.2964L8.47023 11.347ZM4.04923 7.32346L4.08294 7.07574H4.08294L4.04923 7.32346ZM3.38773 6.61887H3.13773V6.61887L3.38773 6.61887ZM3.38773 1.91256H3.63773H3.38773ZM4.34336 0.913547L4.33226 0.663793L4.34336 0.913547ZM9.15779 0.69968L9.16889 0.949434H9.16889L9.15779 0.69968ZM0.33107 8.46308V8.71308H0.0810703L0.0810698 8.46308L0.33107 8.46308ZM0.331055 0.331082H0.0810547L0.0810542 0.0810824H0.331055V0.331082ZM10.5931 6.69065C10.8837 4.54397 10.7086 2.94325 9.81558 1.29723L10.2551 1.05879C11.213 2.82444 11.3888 4.54001 11.0886 6.75772L10.5931 6.69065ZM10.1947 7.03103C10.3983 7.03103 10.5669 6.88401 10.5931 6.69065L11.0886 6.75772C11.0277 7.20737 10.64 7.53103 10.1947 7.53103V7.03103ZM7.96198 7.03103L10.1947 7.03103V7.53103L7.96197 7.53103L7.96198 7.03103ZM8.47023 11.347C8.2254 11.2964 8.22539 11.2965 8.22538 11.2965C8.22538 11.2965 8.22537 11.2966 8.22537 11.2966C8.22537 11.2966 8.22538 11.2965 8.22539 11.2965C8.22542 11.2963 8.22547 11.2961 8.22556 11.2956C8.22573 11.2948 8.22602 11.2933 8.22642 11.2913C8.22722 11.2873 8.22845 11.281 8.23006 11.2725C8.23328 11.2554 8.238 11.2296 8.24371 11.1959C8.25516 11.1283 8.27059 11.0291 8.28609 10.9047C8.31713 10.6556 8.34822 10.3072 8.3484 9.91107C8.34876 9.11072 8.22271 8.15198 7.75143 7.41582L8.17252 7.14623C8.7207 8.0025 8.84878 9.07676 8.8484 9.9113C8.84821 10.3326 8.81521 10.7021 8.78226 10.9666C8.76576 11.0989 8.74922 11.2054 8.73669 11.2794C8.73042 11.3164 8.72515 11.3453 8.72137 11.3653C8.71949 11.3752 8.71798 11.383 8.7169 11.3884C8.71636 11.3911 8.71594 11.3933 8.71562 11.3948C8.71547 11.3956 8.71534 11.3962 8.71525 11.3967C8.7152 11.3969 8.71516 11.3971 8.71513 11.3973C8.71511 11.3973 8.71509 11.3974 8.71508 11.3975C8.71507 11.3976 8.71505 11.3976 8.47023 11.347ZM6.94135 11.347C6.94135 11.422 6.979 11.4935 7.09334 11.5588C7.21258 11.6269 7.38913 11.6688 7.58079 11.6688C7.77245 11.6688 7.949 11.6269 8.06824 11.5588C8.18258 11.4935 8.22023 11.422 8.22023 11.347H8.72023C8.72023 11.6532 8.53551 11.8677 8.31631 11.9929C8.10202 12.1154 7.83384 12.1688 7.58079 12.1688C7.32773 12.1688 7.05956 12.1154 6.84526 11.9929C6.62607 11.8677 6.44135 11.6532 6.44135 11.347H6.94135ZM4.08294 7.07574C5.27059 7.23736 6.00166 7.82663 6.42306 8.63489C6.83499 9.42499 6.94135 10.405 6.94135 11.347H6.44135C6.44135 10.4281 6.33477 9.54709 5.9797 8.86605C5.6341 8.20317 5.04411 7.71115 4.01552 7.57117L4.08294 7.07574ZM3.63773 6.61887C3.63773 6.83784 3.82172 7.04019 4.08294 7.07574L4.01552 7.57117C3.55203 7.5081 3.13773 7.1313 3.13773 6.61887H3.63773ZM3.63773 1.91256L3.63773 6.61887L3.13773 6.61887L3.13773 1.91256H3.63773ZM4.35445 1.1633C3.95358 1.18111 3.63774 1.51129 3.63773 1.91256H3.13773C3.13774 1.24378 3.66414 0.693473 4.33226 0.663793L4.35445 1.1633ZM9.16889 0.949434L4.35445 1.1633L4.33226 0.663793L9.1467 0.449926L9.16889 0.949434ZM9.81558 1.29723C9.69337 1.07197 9.44255 0.937277 9.16889 0.949434L9.1467 0.449926C9.59358 0.430075 10.0333 0.650097 10.2551 1.05879L9.81558 1.29723ZM1.44779 8.71308H0.33107V8.21308H1.44779V8.71308ZM2.35994 7.80093C2.35994 8.3047 1.95156 8.71308 1.44779 8.71308V8.21308C1.67542 8.21308 1.85994 8.02855 1.85994 7.80093H2.35994ZM2.35994 0.993238V7.80093H1.85994V0.993238H2.35994ZM1.44779 0.0810824C1.95156 0.0810824 2.35994 0.489469 2.35994 0.993238H1.85994C1.85994 0.765611 1.67542 0.581082 1.44779 0.581082V0.0810824ZM0.331055 0.0810824H1.44779V0.581082H0.331055V0.0810824ZM0.0810698 8.46308L0.0810547 0.331082H0.581055L0.58107 8.46308L0.0810698 8.46308Z" fill="currentColor"/>
</svg>
