<svg width="12" height="13" viewBox="0 0 12 13" fill="none" xmlns="http://www.w3.org/2000/svg">
<path fill-rule="evenodd" clip-rule="evenodd" d="M8.35656 12.0633C8.58445 11.9331 8.78661 11.7073 8.80056 11.3829L8.80107 11.3803C8.80493 11.3599 8.81029 11.3305 8.81665 11.2929C8.82936 11.2179 8.84608 11.1103 8.86274 10.9766C8.896 10.7097 8.92931 10.3367 8.9295 9.91134C8.92981 9.22792 8.8449 8.37714 8.51138 7.6121L10.1947 7.61211C10.6792 7.61211 11.1025 7.25981 11.169 6.76859C11.4707 4.53936 11.2948 2.80518 10.3264 1.02013C10.0885 0.581686 9.61809 0.347828 9.14313 0.368927L4.32869 0.582794C3.61723 0.614399 3.05668 1.2004 3.05668 1.91256L3.05667 6.61887C3.05667 7.17888 3.50832 7.58397 4.00462 7.65151C5.00741 7.78797 5.57452 8.26423 5.90783 8.90353C6.25368 9.56689 6.3603 10.4319 6.3603 11.347C6.3603 11.6907 6.56886 11.9283 6.80506 12.0633C7.03477 12.1946 7.3178 12.2499 7.58081 12.2499C7.84382 12.2499 8.12685 12.1946 8.35656 12.0633ZM8.13917 11.347C8.13917 11.3245 8.14147 11.3021 8.14602 11.28L8.14612 11.2796L8.14691 11.2756L8.15042 11.2574C8.15355 11.2408 8.15817 11.2155 8.1638 11.1823C8.17506 11.1158 8.19032 11.0178 8.20566 10.8947C8.23639 10.6481 8.26717 10.3031 8.26735 9.91103C8.26771 9.11623 8.14199 8.17622 7.68317 7.45953C7.61793 7.35763 7.61348 7.22825 7.67156 7.1221C7.72964 7.01596 7.841 6.94995 7.962 6.94995L10.1947 6.94995C10.3591 6.94995 10.4922 6.83157 10.5128 6.67977C10.8018 4.54461 10.6269 2.96251 9.74434 1.3359C9.63827 1.14038 9.41809 1.01952 9.17251 1.03043L4.35807 1.2443C4.00054 1.26018 3.71884 1.55467 3.71884 1.91256L3.71883 6.61887C3.71883 6.79025 3.86548 6.96432 4.0939 6.9954C5.30734 7.16053 6.06128 7.76557 6.49498 8.59741C6.91612 9.40519 7.02245 10.4012 7.02245 11.347C7.02245 11.3845 7.03625 11.4328 7.13359 11.4884C7.23742 11.5477 7.39911 11.5877 7.58081 11.5877C7.76252 11.5877 7.92421 11.5477 8.02804 11.4884C8.12537 11.4328 8.13917 11.3845 8.13917 11.347ZM0.331094 8.79416H1.57654e-05V8.46308L6.25849e-07 0.331083L0 3.8147e-06H0.331079H1.44781C1.99636 3.8147e-06 2.44105 0.444689 2.44105 0.993237V7.80092C2.44105 8.34947 1.99636 8.79416 1.44781 8.79416H0.331094ZM0.662157 0.66216L0.662171 8.132H1.44781C1.63066 8.132 1.77889 7.98377 1.77889 7.80092V0.993237C1.77889 0.810389 1.63066 0.66216 1.44781 0.66216H0.662157Z" fill="currentColor"/>
</svg>
