<svg width="12" height="12" viewBox="0 0 12 12" fill="none" xmlns="http://www.w3.org/2000/svg">
<path fill-rule="evenodd" clip-rule="evenodd" d="M4.96554 0.62069C4.96554 0.277892 5.24343 0 5.58623 0H6.41381C6.75661 0 7.0345 0.277892 7.0345 0.62069V1.77908C7.47007 1.88546 7.87989 2.05751 8.25288 2.28413L9.07226 1.46476C9.31465 1.22237 9.70765 1.22237 9.95004 1.46476L10.5352 2.04996C10.7776 2.29235 10.7776 2.68535 10.5352 2.92774L9.71587 3.74711C9.9425 4.12011 10.1146 4.52994 10.2209 4.96552H11.3793C11.7221 4.96552 12 5.24341 12 5.58621V6.41379C12 6.75659 11.7221 7.03448 11.3793 7.03448H10.2209C10.1146 7.47006 9.9425 7.87989 9.71587 8.25289L10.5352 9.07225C10.7776 9.31465 10.7776 9.70765 10.5352 9.95004L9.95004 10.5352C9.70765 10.7776 9.31465 10.7776 9.07226 10.5352L8.25289 9.71586C7.87989 9.94249 7.47007 10.1145 7.0345 10.2209V11.3793C7.0345 11.7221 6.75661 12 6.41381 12H5.58623C5.24343 12 4.96554 11.7221 4.96554 11.3793V10.2209C4.52996 10.1145 4.12013 9.94248 3.74713 9.71585L2.92774 10.5352C2.68535 10.7776 2.29235 10.7776 2.04996 10.5352L1.46477 9.95004C1.22237 9.70765 1.22237 9.31465 1.46476 9.07225L2.28415 8.25286C2.05753 7.87987 1.88548 7.47005 1.7791 7.03448H0.62069C0.277892 7.03448 0 6.75659 0 6.41379V5.58621C0 5.24341 0.277892 4.96552 0.62069 4.96552H1.7791C1.88548 4.52995 2.05753 4.12013 2.28416 3.74713L1.46477 2.92774C1.22237 2.68535 1.22237 2.29235 1.46476 2.04996L2.04996 1.46476C2.29235 1.22237 2.68535 1.22237 2.92774 1.46476L3.74713 2.28415C4.12013 2.05752 4.52996 1.88547 4.96554 1.77908V0.62069ZM5.99998 8.27586C7.25691 8.27586 8.27584 7.25692 8.27584 6C8.27584 4.74308 7.25691 3.72414 5.99998 3.72414C4.74306 3.72414 3.72412 4.74308 3.72412 6C3.72412 7.25692 4.74306 8.27586 5.99998 8.27586Z" fill="currentColor" fill-opacity="0.75"/>
</svg>
