<svg width="179" height="179" viewBox="0 0 179 179" fill="none" xmlns="http://www.w3.org/2000/svg">
<circle cx="89.5" cy="89.5" r="89.5" fill="#2C7DA0"/>
<circle cx="57.4875" cy="77.87" r="13.2699" fill="white"/>
<path d="M85.47 117.292C86.3607 120.282 83.8742 122.988 80.7546 122.988H34.2205C31.1009 122.988 28.6143 120.282 29.5051 117.292C33.0967 105.237 44.2657 96.4478 57.4875 96.4478C70.7094 96.4478 81.8783 105.237 85.47 117.292Z" fill="white"/>
<circle cx="121.065" cy="77.87" r="13.2699" fill="white"/>
<path d="M149.047 117.292C149.938 120.282 147.451 122.988 144.332 122.988H97.7975C94.6779 122.988 92.1914 120.282 93.0821 117.292C96.6738 105.237 107.843 96.4478 121.065 96.4478C134.286 96.4478 145.455 105.237 149.047 117.292Z" fill="white"/>
<circle cx="89.2167" cy="67.2541" r="13.2699" fill="white"/>
<path d="M88.018 109.867C88.5868 110.837 90.0858 110.838 90.656 109.868C94.5555 103.239 100.908 98.132 108.333 95.6648C109.292 95.3464 109.634 94.1357 108.888 93.455C103.699 88.7199 96.7953 85.832 89.2166 85.832C81.6915 85.832 74.8309 88.6794 69.6542 93.3554C68.9012 94.0355 69.2455 95.2539 70.2094 95.5707C77.703 98.0338 84.0977 103.179 88.018 109.867Z" fill="white"/>
</svg>
