<svg width="12" height="13" viewBox="0 0 12 13" fill="none" xmlns="http://www.w3.org/2000/svg">
<path fill-rule="evenodd" clip-rule="evenodd" d="M10.0353 11.0719C10.9608 9.36605 11.1362 7.70791 10.8409 5.52571C10.7973 5.20421 10.5192 4.96886 10.1947 4.96886L7.96198 4.96887C8.98144 3.37644 8.47023 0.902869 8.47023 0.902869C8.47023 0.140474 6.69135 0.140487 6.69135 0.902869C6.69135 2.76385 6.26547 4.62484 4.04923 4.92644C3.68687 4.97575 3.38773 5.26533 3.38773 5.63102L3.38773 10.3373C3.38774 10.8724 3.80886 11.3126 4.34336 11.3363L9.15779 11.5502C9.51806 11.5662 9.86335 11.3889 10.0353 11.0719ZM0.33107 3.78681H1.44779C1.81349 3.78681 2.10994 4.08327 2.10994 4.44897V11.2567C2.10994 11.6224 1.81349 11.9188 1.44779 11.9188H0.331055L0.33107 3.78681Z" fill="currentColor"/>
<path d="M10.8409 5.52571L10.5931 5.55925L10.8409 5.52571ZM10.0353 11.0719L9.81558 10.9527L10.0353 11.0719ZM10.1947 4.96886V4.71886V4.96886ZM7.96198 4.96887L7.75143 4.83407L7.50508 5.21887L7.96198 5.21887L7.96198 4.96887ZM8.47023 0.902869H8.22023V0.928432L8.2254 0.953467L8.47023 0.902869ZM4.04923 4.92644L4.08294 5.17415H4.08294L4.04923 4.92644ZM3.38773 5.63102H3.13773V5.63103L3.38773 5.63102ZM3.38773 10.3373H3.63773H3.38773ZM4.34336 11.3363L4.33226 11.5861L4.34336 11.3363ZM9.15779 11.5502L9.16889 11.3005H9.16889L9.15779 11.5502ZM0.33107 3.78681V3.53681H0.0810703L0.0810698 3.78681L0.33107 3.78681ZM0.331055 11.9188H0.0810547L0.0810542 12.1688H0.331055V11.9188ZM10.5931 5.55925C10.8837 7.70593 10.7086 9.30664 9.81558 10.9527L10.2551 11.1911C11.213 9.42545 11.3888 7.70989 11.0886 5.49217L10.5931 5.55925ZM10.1947 5.21886C10.3983 5.21886 10.5669 5.36589 10.5931 5.55925L11.0886 5.49217C11.0277 5.04252 10.64 4.71886 10.1947 4.71886V5.21886ZM7.96198 5.21887L10.1947 5.21886V4.71886L7.96197 4.71887L7.96198 5.21887ZM8.47023 0.902869C8.2254 0.953467 8.22539 0.953414 8.22538 0.95337C8.22538 0.953368 8.22537 0.953334 8.22537 0.953329C8.22537 0.953321 8.22538 0.95335 8.22539 0.953416C8.22542 0.953547 8.22547 0.953827 8.22556 0.954254C8.22573 0.955108 8.22602 0.956548 8.22642 0.958563C8.22722 0.962593 8.22845 0.968918 8.23006 0.977436C8.23328 0.994476 8.238 1.02028 8.24371 1.05403C8.25516 1.12156 8.27059 1.22076 8.28609 1.34516C8.31713 1.59427 8.34822 1.94268 8.3484 2.33882C8.34876 3.13917 8.22271 4.09791 7.75143 4.83407L8.17252 5.10366C8.7207 4.24739 8.84878 3.17314 8.8484 2.33859C8.84821 1.91729 8.81521 1.54778 8.78226 1.28333C8.76576 1.15095 8.74922 1.04447 8.73669 0.9705C8.73042 0.933505 8.72515 0.904609 8.72137 0.884637C8.71949 0.87465 8.71798 0.866891 8.7169 0.861463C8.71636 0.858749 8.71594 0.856617 8.71562 0.855081C8.71547 0.854313 8.71534 0.853693 8.71525 0.853224C8.7152 0.85299 8.71516 0.852793 8.71513 0.852634C8.71511 0.852554 8.71509 0.852463 8.71508 0.852423C8.71507 0.852342 8.71505 0.85227 8.47023 0.902869ZM6.94135 0.902869C6.94135 0.827899 6.979 0.756426 7.09334 0.691087C7.21258 0.622947 7.38913 0.581078 7.58079 0.581078C7.77245 0.581077 7.949 0.622944 8.06824 0.691083C8.18258 0.756421 8.22023 0.827895 8.22023 0.902869H8.72023C8.72023 0.596645 8.53551 0.382223 8.31631 0.256964C8.10202 0.134506 7.83384 0.0810767 7.58079 0.0810776C7.32773 0.0810785 7.05956 0.13451 6.84526 0.256967C6.62607 0.382226 6.44135 0.596647 6.44135 0.902869H6.94135ZM4.08294 5.17415C5.27059 5.01253 6.00166 4.42327 6.42306 3.615C6.83499 2.8249 6.94135 1.84494 6.94135 0.902869H6.44135C6.44135 1.82178 6.33477 2.7028 5.9797 3.38385C5.6341 4.04672 5.04411 4.53875 4.01552 4.67872L4.08294 5.17415ZM3.63773 5.63102C3.63773 5.41206 3.82172 5.2097 4.08294 5.17415L4.01552 4.67872C3.55203 4.74179 3.13773 5.1186 3.13773 5.63102H3.63773ZM3.63773 10.3373L3.63773 5.63102L3.13773 5.63103L3.13773 10.3373H3.63773ZM4.35445 11.0866C3.95358 11.0688 3.63774 10.7386 3.63773 10.3373H3.13773C3.13774 11.0061 3.66414 11.5564 4.33226 11.5861L4.35445 11.0866ZM9.16889 11.3005L4.35445 11.0866L4.33226 11.5861L9.1467 11.8L9.16889 11.3005ZM9.81558 10.9527C9.69337 11.1779 9.44255 11.3126 9.16889 11.3005L9.1467 11.8C9.59358 11.8198 10.0333 11.5998 10.2551 11.1911L9.81558 10.9527ZM1.44779 3.53681H0.33107V4.03681H1.44779V3.53681ZM2.35994 4.44897C2.35994 3.9452 1.95156 3.53681 1.44779 3.53681V4.03681C1.67542 4.03681 1.85994 4.22134 1.85994 4.44897H2.35994ZM2.35994 11.2567V4.44897H1.85994V11.2567H2.35994ZM1.44779 12.1688C1.95156 12.1688 2.35994 11.7604 2.35994 11.2567H1.85994C1.85994 11.4843 1.67542 11.6688 1.44779 11.6688V12.1688ZM0.331055 12.1688H1.44779V11.6688H0.331055V12.1688ZM0.0810698 3.78681L0.0810547 11.9188H0.581055L0.58107 3.78681L0.0810698 3.78681Z" fill="currentColor"/>
</svg>
