<svg width="13" height="13" viewBox="0 0 13 13" fill="none" xmlns="http://www.w3.org/2000/svg">
<path fill-rule="evenodd" clip-rule="evenodd" d="M8.35656 0.186569C8.58445 0.316792 8.78661 0.542543 8.80056 0.866959L8.80107 0.869589C8.80493 0.890037 8.81029 0.919434 8.81665 0.956956C8.82936 1.03197 8.84608 1.13963 8.86274 1.27331C8.896 1.54024 8.92931 1.91318 8.9295 2.33856C8.92981 3.02197 8.8449 3.87275 8.51138 4.63779L10.1947 4.63779C10.6792 4.63779 11.1025 4.99009 11.169 5.4813C11.4707 7.71053 11.2948 9.44472 10.3264 11.2298C10.0885 11.6682 9.61809 11.9021 9.14313 11.881L4.32869 11.6671C3.61723 11.6355 3.05668 11.0495 3.05668 10.3373L3.05667 5.63103C3.05667 5.07101 3.50832 4.66592 4.00462 4.59838C5.00741 4.46192 5.57452 3.98566 5.90783 3.34636C6.25368 2.683 6.3603 1.81802 6.3603 0.902869C6.3603 0.559148 6.56886 0.321548 6.80506 0.186573C7.03477 0.0553077 7.3178 0 7.58081 0C7.84382 0 8.12685 0.0553038 8.35656 0.186569ZM8.13917 0.902869C8.13917 0.92538 8.14147 0.947832 8.14602 0.969877L8.14612 0.970336L8.14691 0.974309L8.15042 0.992485C8.15355 1.00905 8.15817 1.03435 8.1638 1.06758C8.17506 1.13406 8.19032 1.23209 8.20566 1.35519C8.23639 1.60181 8.26717 1.94679 8.26735 2.33886C8.26771 3.13366 8.14199 4.07368 7.68317 4.79036C7.61793 4.89226 7.61348 5.02164 7.67156 5.12779C7.72964 5.23394 7.841 5.29995 7.962 5.29995L10.1947 5.29994C10.3591 5.29994 10.4922 5.41832 10.5128 5.57012C10.8018 7.70528 10.6269 9.28738 9.74434 10.914C9.63827 11.1095 9.41809 11.2304 9.17251 11.2195L4.35807 11.0056C4.00054 10.9897 3.71884 10.6952 3.71884 10.3373L3.71883 5.63102C3.71883 5.45964 3.86548 5.28558 4.0939 5.25449C5.30734 5.08936 6.06128 4.48433 6.49498 3.65248C6.91612 2.8447 7.02245 1.8487 7.02245 0.902869C7.02245 0.865399 7.03625 0.817105 7.13359 0.761483C7.23742 0.70215 7.39911 0.662157 7.58081 0.662156C7.76252 0.662156 7.92421 0.702148 8.02804 0.761479C8.12537 0.8171 8.13917 0.865394 8.13917 0.902869ZM0.331094 3.45573H1.57654e-05V3.78681L6.25849e-07 11.9188L0 12.2499H0.331079H1.44781C1.99636 12.2499 2.44105 11.8052 2.44105 11.2567V4.44897C2.44105 3.90042 1.99636 3.45573 1.44781 3.45573H0.331094ZM0.662157 11.5877L0.662171 4.11789H1.44781C1.63066 4.11789 1.77889 4.26612 1.77889 4.44897V11.2567C1.77889 11.4395 1.63066 11.5877 1.44781 11.5877H0.662157Z" fill="currentColor"/>
</svg>
