<svg width="8" height="12" viewBox="0 0 8 12" fill="none" xmlns="http://www.w3.org/2000/svg">
<path fill-rule="evenodd" clip-rule="evenodd" d="M4.81529 11.709C5.77194 9.70084 7.90194 5.05938 7.90194 3.54234C7.90194 1.58596 6.31598 0 4.3596 0C2.40322 0 0.817261 1.58596 0.817261 3.54234C0.817261 5.05938 2.94726 9.70084 3.90391 11.709C4.08878 12.097 4.63043 12.097 4.81529 11.709ZM4.35958 5.06051C5.19803 5.06051 5.87772 4.38081 5.87772 3.54236C5.87772 2.70391 5.19803 2.02422 4.35958 2.02422C3.52113 2.02422 2.84143 2.70391 2.84143 3.54236C2.84143 4.38081 3.52113 5.06051 4.35958 5.06051Z" fill="currentColor"/>
</svg>
