<svg width="22" height="12" viewBox="0 0 22 12" fill="none" xmlns="http://www.w3.org/2000/svg">
<circle cx="5.05623" cy="4.15385" r="2.30769" fill="currentColor"/>
<path d="M9.92247 11.0095C10.0774 11.5295 9.64496 12 9.10245 12H1.01C0.467492 12 0.0350715 11.5295 0.189979 11.0095C0.81458 8.91316 2.7569 7.38461 5.05623 7.38461C7.35555 7.38461 9.29787 8.91316 9.92247 11.0095Z" fill="currentColor"/>
<circle cx="16.1125" cy="4.15385" r="2.30769" fill="currentColor"/>
<path d="M20.9787 11.0095C21.1337 11.5295 20.7012 12 20.1587 12H12.0663C11.5238 12 11.0913 11.5295 11.2463 11.0095C11.8709 8.91316 13.8132 7.38461 16.1125 7.38461C18.4118 7.38461 20.3541 8.91316 20.9787 11.0095Z" fill="currentColor"/>
<circle cx="10.574" cy="2.30769" r="2.30769" fill="currentColor"/>
<path d="M10.3656 9.71818C10.4645 9.88693 10.7252 9.88706 10.8244 9.71846C11.5025 8.56565 12.6072 7.67747 13.8985 7.24842C14.0651 7.19304 14.1247 6.9825 13.995 6.86413C13.0926 6.04068 11.892 5.53846 10.574 5.53846C9.26538 5.53846 8.0723 6.03362 7.17205 6.84681C7.04111 6.96508 7.10098 7.17695 7.2686 7.23205C8.57177 7.66039 9.68382 8.55519 10.3656 9.71818Z" fill="currentColor"/>
</svg>
