<svg width="65" height="53" viewBox="0 0 65 53" fill="none" xmlns="http://www.w3.org/2000/svg">
<path d="M4.48558 1.47288C3.65365 0.640957 2.30484 0.640957 1.47292 1.47288C0.640997 2.3048 0.640998 3.65362 1.47292 4.48554L49.2512 52.2638C50.0831 53.0957 51.4319 53.0957 52.2638 52.2638C53.0957 51.4319 53.0957 50.083 52.2638 49.2511L4.48558 1.47288Z" fill="currentColor"/>
<path d="M1.61501 17.0146C3.30411 15.6302 5.06442 14.3764 6.88252 13.253C7.27192 13.0124 7.77461 13.0759 8.09828 13.3996L13.7546 19.0559C14.2345 19.5358 14.1071 20.3445 13.5143 20.6749C11.7991 21.6304 10.1408 22.7253 8.55581 23.9594C6.42969 25.6149 3.35534 25.6453 1.44996 23.7399C-0.455428 21.8345 -0.469086 18.7227 1.61501 17.0146Z" fill="currentColor"/>
<path d="M15.5193 30.9381C17.4075 29.5905 19.4199 28.4941 21.5102 27.6488C21.8748 27.5014 22.2908 27.5921 22.5689 27.8702L28.667 33.9683C29.2563 34.5576 28.9101 35.587 28.098 35.7742C26.1667 36.2193 24.2901 36.9614 22.5409 38.0007C20.2243 39.377 17.1553 39.4453 15.25 37.5399C13.3446 35.6345 13.326 32.5035 15.5193 30.9381Z" fill="currentColor"/>
<path d="M33.0985 25.522C32.2343 25.5045 31.8332 26.5316 32.4443 27.1427L43.8125 38.5109C43.9261 38.6245 44.0652 38.7104 44.2201 38.7535C46.1741 39.2972 48.2993 38.9906 49.75 37.5399C51.6553 35.6345 51.6739 32.5035 49.4806 30.9381C44.5854 27.4443 38.8559 25.639 33.0985 25.522Z" fill="currentColor"/>
<path d="M16.0961 8.82798C15.417 9.06982 15.2355 9.93393 15.7453 10.4437L21.978 16.6764C22.2304 16.9289 22.5983 17.0265 22.9446 16.9395C34.3308 14.0766 46.7567 16.4164 56.4441 23.9594C58.5702 25.6149 61.6446 25.6453 63.55 23.7399C65.4553 21.8345 65.469 18.7227 63.3849 17.0146C49.8853 5.95051 31.8385 3.22204 16.0961 8.82798Z" fill="currentColor"/>
<path d="M35.95 51.3399C37.8553 49.4345 37.8553 46.3453 35.95 44.4399C34.0446 42.5345 30.9553 42.5345 29.05 44.4399C27.1446 46.3453 27.1446 49.4345 29.05 51.3399C30.9553 53.2453 34.0446 53.2453 35.95 51.3399Z" fill="currentColor"/>
</svg>
