<svg width="12" height="12" viewBox="0 0 12 12" fill="none" xmlns="http://www.w3.org/2000/svg">
<path fill-rule="evenodd" clip-rule="evenodd" d="M6 12C9.31371 12 12 9.31371 12 6C12 2.68629 9.31371 0 6 0C2.68629 0 0 2.68629 0 6C0 9.31371 2.68629 12 6 12ZM6.54545 3.27273C6.54545 2.97148 6.30125 2.72727 6 2.72727C5.69875 2.72727 5.45455 2.97148 5.45455 3.27273V5.45455H3.27273C2.97148 5.45455 2.72727 5.69875 2.72727 6C2.72727 6.30125 2.97148 6.54545 3.27273 6.54545H5.45455V8.72727C5.45455 9.02852 5.69875 9.27273 6 9.27273C6.30125 9.27273 6.54545 9.02852 6.54545 8.72727V6.54545H8.72727C9.02852 6.54545 9.27273 6.30125 9.27273 6C9.27273 5.69875 9.02852 5.45455 8.72727 5.45455H6.54545V3.27273Z" fill="currentColor" fill-opacity="0.75"/>
</svg>
