<svg width="14" height="14" viewBox="0 0 14 14" fill="none" xmlns="http://www.w3.org/2000/svg">
<path d="M7.9662 1.12494C7.9662 0.719015 7.63713 0.389945 7.2312 0.389945C6.82527 0.389945 6.4962 0.719015 6.4962 1.12494H7.9662ZM6.4962 13.1249C6.4962 13.5309 6.82527 13.8599 7.2312 13.8599C7.63713 13.8599 7.9662 13.5309 7.9662 13.1249H6.4962ZM13.2312 7.85994C13.6371 7.85994 13.9662 7.53087 13.9662 7.12494C13.9662 6.71902 13.6371 6.38994 13.2312 6.38994V7.85994ZM1.2312 6.38994C0.825272 6.38994 0.496201 6.71902 0.496201 7.12494C0.496201 7.53087 0.825272 7.85994 1.2312 7.85994V6.38994ZM6.4962 1.12494V13.1249H7.9662V1.12494H6.4962ZM13.2312 6.38994H1.2312V7.85994H13.2312V6.38994Z" fill="currentColor" fill-opacity="0.75"/>
</svg>
