<svg width="10" height="13" viewBox="0 0 10 13" fill="none" xmlns="http://www.w3.org/2000/svg">
<path d="M8.45 12.2C8.45 12.5038 8.69624 12.75 9 12.75C9.30376 12.75 9.55 12.5038 9.55 12.2H8.45ZM1 4.2L0.611091 3.81109C0.396303 4.02588 0.396303 4.37412 0.611091 4.58891L1 4.2ZM4.58891 1.38891C4.8037 1.17412 4.8037 0.82588 4.58891 0.611091C4.37412 0.396303 4.02588 0.396303 3.81109 0.611091L4.58891 1.38891ZM3.81109 7.78891C4.02588 8.0037 4.37412 8.0037 4.58891 7.78891C4.8037 7.57412 4.8037 7.22588 4.58891 7.01109L3.81109 7.78891ZM9.55 12.2V7.4H8.45V12.2H9.55ZM5.8 3.65H1V4.75H5.8V3.65ZM1.38891 4.58891L4.58891 1.38891L3.81109 0.611091L0.611091 3.81109L1.38891 4.58891ZM0.611091 4.58891L3.81109 7.78891L4.58891 7.01109L1.38891 3.81109L0.611091 4.58891ZM9.55 7.4C9.55 5.32893 7.87107 3.65 5.8 3.65V4.75C7.26355 4.75 8.45 5.93645 8.45 7.4H9.55Z" fill="currentColor"/>
</svg>
