<svg width="12" height="12" viewBox="0 0 12 12" fill="none" xmlns="http://www.w3.org/2000/svg">
<path fill-rule="evenodd" clip-rule="evenodd" d="M7.29841 6.47968C8.48846 4.89236 8.36165 2.63054 6.91805 1.18695C5.33546 -0.395644 2.76955 -0.395653 1.18695 1.18695C-0.395656 2.76955 -0.395643 5.33546 1.18695 6.91805C2.63054 8.36165 4.89236 8.48846 6.47968 7.29841L11.0117 11.8304C11.2378 12.0565 11.6043 12.0565 11.8304 11.8304C12.0565 11.6043 12.0565 11.2378 11.8304 11.0117L7.29841 6.47968ZM6.09933 6.09932C4.9689 7.22975 3.1361 7.22975 2.00568 6.09932C0.875252 4.9689 0.875249 3.1361 2.00568 2.00568C3.13611 0.875247 4.9689 0.875251 6.09933 2.00568C7.22975 3.1361 7.22975 4.9689 6.09933 6.09932Z" fill="currentColor"/>
</svg>
