<svg width="9" height="12" viewBox="0 0 9 12" fill="none" xmlns="http://www.w3.org/2000/svg">
<path fill-rule="evenodd" clip-rule="evenodd" d="M8.33333 1.5C8.33333 1.96024 7.96024 2.33333 7.5 2.33333C7.03976 2.33333 6.66667 1.96024 6.66667 1.5C6.66667 1.03976 7.03976 0.666667 7.5 0.666667C7.96024 0.666667 8.33333 1.03976 8.33333 1.5ZM9 1.5C9 2.32843 8.32843 3 7.5 3C7.16278 3 6.85155 2.88872 6.60103 2.70088L2.83225 5.31003C2.93944 5.51658 3 5.75122 3 6C3 6.24978 2.93895 6.48531 2.83095 6.69246L6.50509 9.37741C6.76985 9.14259 7.11827 9 7.5 9C8.32843 9 9 9.67157 9 10.5C9 11.3284 8.32843 12 7.5 12C6.67157 12 6 11.3284 6 10.5C6 10.2941 6.0415 10.0978 6.11658 9.9192L2.39789 7.2017C2.14755 7.38904 1.83673 7.5 1.5 7.5C0.671573 7.5 0 6.82843 0 6C0 5.17157 0.671573 4.5 1.5 4.5C1.83723 4.5 2.14847 4.61129 2.399 4.79914L6.16777 2.18999C6.06057 1.98343 6 1.74879 6 1.5C6 0.671573 6.67157 0 7.5 0C8.32843 0 9 0.671573 9 1.5ZM7.5 11.3333C7.96024 11.3333 8.33333 10.9602 8.33333 10.5C8.33333 10.0398 7.96024 9.66667 7.5 9.66667C7.03976 9.66667 6.66667 10.0398 6.66667 10.5C6.66667 10.9602 7.03976 11.3333 7.5 11.3333ZM2.33333 6C2.33333 6.46024 1.96024 6.83333 1.5 6.83333C1.03976 6.83333 0.666667 6.46024 0.666667 6C0.666667 5.53976 1.03976 5.16667 1.5 5.16667C1.96024 5.16667 2.33333 5.53976 2.33333 6Z" fill="currentColor"/>
</svg>
