<svg width="11" height="12" viewBox="0 0 11 12" fill="none" xmlns="http://www.w3.org/2000/svg">
<path fill-rule="evenodd" clip-rule="evenodd" d="M2.76923 1.84615V1.84615C2.76923 0.826551 3.59578 0 4.61538 0H5.53846C6.55806 0 7.38461 0.826551 7.38461 1.84615V1.84615H9.69231C9.94721 1.84615 10.1538 2.05279 10.1538 2.30769V2.30769C10.1538 2.56259 9.94721 2.76923 9.69231 2.76923H9.23077V10C9.23077 11.1046 8.33534 12 7.23077 12H2.92308C1.81851 12 0.923077 11.1046 0.923077 10V2.76923H0.461538C0.206638 2.76923 0 2.56259 0 2.30769V2.30769C0 2.05279 0.206637 1.84615 0.461538 1.84615H2.76923ZM3.69231 1.84615C3.69231 1.33635 4.10558 0.923077 4.61538 0.923077H5.53846C6.04826 0.923077 6.46154 1.33635 6.46154 1.84615V1.84615H3.69231V1.84615ZM1.84615 2.76923V10.0769C1.84615 10.6292 2.29387 11.0769 2.84615 11.0769H7.30769C7.85998 11.0769 8.30769 10.6292 8.30769 10.0769V2.76923H1.84615Z" fill="currentColor"/>
</svg>
