<svg width="24" height="25" viewBox="0 0 24 25" fill="none" xmlns="http://www.w3.org/2000/svg">
<path fill-rule="evenodd" clip-rule="evenodd" d="M12.8777 0.421056C12.6449 0.188252 12.3292 0.0574646 11.9999 0.0574646C11.6707 0.0574646 11.3549 0.188252 11.1221 0.421056L3.94973 7.59347C3.46494 8.07826 3.46494 8.86426 3.94973 9.34905C4.43452 9.83383 5.22052 9.83383 5.70531 9.34905L10.7586 4.2958V18.2644C10.7586 18.95 11.3143 19.5057 11.9999 19.5057C12.6855 19.5057 13.2413 18.95 13.2413 18.2644V4.2958L18.2946 9.34905C18.7793 9.83383 19.5653 9.83383 20.0501 9.34905C20.5349 8.86426 20.5349 8.07826 20.0501 7.59347L12.8777 0.421056ZM2.48276 16.1954C2.48276 15.5098 1.92697 14.954 1.24138 14.954C0.555784 14.954 0 15.5098 0 16.1954V23.3678C0 24.0534 0.555784 24.6092 1.24138 24.6092H12H22.7586C23.4442 24.6092 24 24.0534 24 23.3678V16.1954C24 15.5098 23.4442 14.954 22.7586 14.954C22.073 14.954 21.5172 15.5098 21.5172 16.1954V22.1264H12H2.48276V16.1954Z" fill="currentColor" fill-opacity="0.75"/>
</svg>
